<svg width="16" height="11" viewBox="0 0 16 11" fill="none" xmlns="http://www.w3.org/2000/svg">
<rect width="16" height="11" fill="#E5E5E5"/>
<g id="Tablet 1024 &#208;&#155;&#208;&#154; (&#208;&#191;&#209;&#128;&#208;&#190;&#209;&#129;&#208;&#188;&#208;&#190;&#209;&#130;&#209;&#128;&#208;&#181;&#208;&#189;&#208;&#189;&#208;&#190;&#208;&#181;)" clip-path="url(#clip0_94_2)">
<rect width="1024" height="1085" transform="translate(-268 -279)" fill="white"/>
<rect id="Rectangle 2" x="-268" y="-279" width="1024" height="1085" fill="#F4F4F4"/>
<path id="Rectangle 1" d="M-268 -113C-268 -116.866 -264.866 -120 -261 -120H749C752.866 -120 756 -116.866 756 -113V799C756 802.866 752.866 806 749 806H-261C-264.866 806 -268 802.866 -268 799V-113Z" fill="white"/>
<g id="Post 1">
<g id="Group 1">
<path id="Vector" d="M8 0C4.36364 0 1.25818 2.28067 0 5.5C1.25818 8.71933 4.36364 11 8 11C11.6364 11 14.7418 8.71933 16 5.5C14.7418 2.28067 11.6364 0 8 0ZM8 9.16667C5.99273 9.16667 4.36364 7.524 4.36364 5.5C4.36364 3.476 5.99273 1.83333 8 1.83333C10.0073 1.83333 11.6364 3.476 11.6364 5.5C11.6364 7.524 10.0073 9.16667 8 9.16667ZM8 3.3C6.79273 3.3 5.81818 4.28267 5.81818 5.5C5.81818 6.71733 6.79273 7.7 8 7.7C9.20727 7.7 10.1818 6.71733 10.1818 5.5C10.1818 4.28267 9.20727 3.3 8 3.3Z" fill="#999999"/>
</g>
</g>
</g>
<defs>
<clipPath id="clip0_94_2">
<rect width="1024" height="1085" fill="white" transform="translate(-268 -279)"/>
</clipPath>
</defs>
</svg>
